<?xml version="1.0" encoding="UTF-8"?>
<svg width="206px" height="34px" viewBox="0 0 206 34" version="1.1" xmlns="http://www.w3.org/2000/svg" xmlns:xlink="http://www.w3.org/1999/xlink">
    <!-- Generator: Sketch 51.3 (57544) - http://www.bohemiancoding.com/sketch -->
    <title>logo</title>
    <desc>Created with Sketch.</desc>
    <defs></defs>
    <g id="Page-1" stroke="none" stroke-width="1" fill="none" fill-rule="evenodd">
        <g id="logo" transform="translate(103.000000, 17.500000) rotate(-270.000000) translate(-103.000000, -17.500000) translate(85.500000, -85.500000)">
            <path d="M-21.396,40.973 L-21.396,43.833 L-27.974,43.833 L-27.974,47.573 L-22.936,47.573 L-22.936,50.323 L-27.974,50.323 L-27.974,54.14 L-21.396,54.14 L-21.396,57 L-31.714,57 L-31.714,40.973 L-21.396,40.973 Z M-16.556,51.104 L-20.23,45.593 L-16.952,45.593 C-16.7099988,45.593 -16.5321672,45.6241664 -16.4185,45.6865 C-16.3048328,45.7488336 -16.2040004,45.8533326 -16.116,46 L-14.081,49.377 C-14.0369998,49.2449993 -13.9820003,49.1166673 -13.916,48.992 C-13.8499997,48.8673327 -13.7766671,48.735334 -13.696,48.596 L-12.244,46.055 C-12.1486662,45.8863325 -12.0423339,45.767167 -11.925,45.6975 C-11.8076661,45.627833 -11.6646675,45.593 -11.496,45.593 L-8.372,45.593 L-12.046,50.95 L-8.218,57 L-11.496,57 C-11.7380012,57 -11.9323326,56.9413339 -12.079,56.824 C-12.2256674,56.7066661 -12.3466662,56.5673341 -12.442,56.406 L-14.477,52.908 C-14.5136669,53.0326673 -14.5576664,53.1499995 -14.609,53.26 C-14.6603336,53.3700006 -14.715333,53.4726662 -14.774,53.568 L-16.446,56.406 C-16.5340004,56.5600008 -16.6513326,56.6974994 -16.798,56.8185 C-16.9446674,56.9395006 -17.1279989,57 -17.348,57 L-20.384,57 L-16.556,51.104 Z M-2.674,57.176 C-3.21666938,57.176 -3.6951646,57.0971675 -4.1095,56.9395 C-4.52383541,56.7818325 -4.87216526,56.5581681 -5.1545,56.2685 C-5.43683475,55.9788319 -5.6513326,55.6286687 -5.798,55.218 C-5.9446674,54.8073313 -6.018,54.3490025 -6.018,53.843 L-6.018,47.947 L-6.986,47.947 C-7.16200088,47.947 -7.31233271,47.8901672 -7.437,47.7765 C-7.56166729,47.6628328 -7.624,47.4960011 -7.624,47.276 L-7.624,45.945 L-5.809,45.593 L-5.138,42.81 C-5.04999956,42.4579982 -4.80066872,42.282 -4.39,42.282 L-2.608,42.282 L-2.608,45.615 L0.164,45.615 L0.164,47.947 L-2.608,47.947 L-2.608,53.612 C-2.608,53.8760013 -2.54383398,54.0941658 -2.4155,54.2665 C-2.28716603,54.4388342 -2.10200121,54.525 -1.86,54.525 C-1.73533271,54.525 -1.63083376,54.5121668 -1.5465,54.4865 C-1.46216625,54.4608332 -1.38883365,54.4315002 -1.3265,54.3985 C-1.26416636,54.3654998 -1.20550028,54.3361668 -1.1505,54.3105 C-1.09549972,54.2848332 -1.0313337,54.272 -0.958,54.272 C-0.85533282,54.272 -0.772833645,54.2958331 -0.7105,54.3435 C-0.648166355,54.3911669 -0.58400033,54.4663328 -0.518,54.569 L0.516,56.186 C0.0759978,56.5160017 -0.41899725,56.7634992 -0.969,56.9285 C-1.51900275,57.0935008 -2.0873304,57.176 -2.674,57.176 Z M7.006,45.417 C7.76133711,45.417 8.45249686,45.5343322 9.0795,45.769 C9.70650313,46.0036678 10.2454977,46.3446644 10.6965,46.792 C11.1475023,47.2393356 11.4994987,47.7874968 11.7525,48.4365 C12.0055013,49.0855032 12.132,49.8206626 12.132,50.642 C12.132,50.898668 12.1210001,51.1076659 12.099,51.269 C12.0769999,51.4303341 12.036667,51.5586662 11.978,51.654 C11.919333,51.7493338 11.8405005,51.8153332 11.7415,51.852 C11.6424995,51.8886669 11.5160008,51.907 11.362,51.907 L4.784,51.907 C4.89400055,52.8603381 5.18366432,53.5514979 5.653,53.9805 C6.12233568,54.4095021 6.72732963,54.624 7.468,54.624 C7.86400198,54.624 8.20499857,54.5763338 8.491,54.481 C8.77700143,54.3856662 9.03183221,54.2793339 9.2555,54.162 C9.47916778,54.0446661 9.68449906,53.9383338 9.8715,53.843 C10.0585009,53.7476662 10.2546656,53.7 10.46,53.7 C10.7313347,53.7 10.936666,53.798999 11.076,53.997 L12.066,55.218 C11.7139982,55.6213354 11.334502,55.9494987 10.9275,56.2025 C10.520498,56.4555013 10.1025021,56.6534993 9.6735,56.7965 C9.24449785,56.9395007 8.81550214,57.0384997 8.3865,57.0935 C7.95749785,57.1485003 7.54866861,57.176 7.16,57.176 C6.36066267,57.176 5.61083683,57.0458346 4.9105,56.7855 C4.21016316,56.5251654 3.59783595,56.1383359 3.0735,55.625 C2.54916404,55.1116641 2.13483485,54.4736705 1.8305,53.711 C1.52616514,52.9483295 1.374,52.0610051 1.374,51.049 C1.374,50.2863295 1.50416536,49.5640034 1.7645,48.882 C2.02483463,48.1999966 2.39883089,47.6023359 2.8865,47.089 C3.3741691,46.5756641 3.96449653,46.1686682 4.6575,45.868 C5.35050346,45.5673318 6.13332897,45.417 7.006,45.417 Z M7.072,47.771 C6.41933007,47.771 5.9096685,47.9561648 5.543,48.3265 C5.1763315,48.6968352 4.93433392,49.2303299 4.817,49.927 L9.074,49.927 C9.074,49.6556653 9.03916701,49.391668 8.9695,49.135 C8.89983298,48.8783321 8.78616745,48.6491677 8.6285,48.4475 C8.47083254,48.2458323 8.26366795,48.0826673 8.007,47.958 C7.75033205,47.8333327 7.4386685,47.771 7.072,47.771 Z M14.09,57 L14.09,45.593 L16.202,45.593 C16.4146677,45.593 16.5924993,45.6406662 16.7355,45.736 C16.8785007,45.8313338 16.979333,45.9743324 17.038,46.165 L17.236,46.825 C17.4560011,46.6196656 17.6833322,46.4290009 17.918,46.253 C18.1526678,46.0769991 18.403832,45.9285006 18.6715,45.8075 C18.939168,45.6864994 19.2288318,45.591167 19.5405,45.5215 C19.8521682,45.451833 20.1913315,45.417 20.558,45.417 C21.1813364,45.417 21.7331643,45.5251656 22.2135,45.7415 C22.6938357,45.9578344 23.0989984,46.2584981 23.429,46.6435 C23.7590016,47.0285019 24.0083325,47.4868307 24.177,48.0185 C24.3456675,48.5501693 24.43,49.1276636 24.43,49.751 L24.43,57 L21.02,57 L21.02,49.751 C21.02,49.1936639 20.8916679,48.7591682 20.635,48.4475 C20.378332,48.1358318 20.0006692,47.98 19.502,47.98 C19.1279981,47.98 18.7760016,48.0606659 18.446,48.222 C18.1159983,48.3833341 17.8006682,48.5996653 17.5,48.871 L17.5,57 L14.09,57 Z M33.824,48.09 C33.7359996,48.229334 33.6425005,48.328333 33.5435,48.387 C33.4444995,48.445667 33.3180008,48.475 33.164,48.475 C33.0026659,48.475 32.8413341,48.440167 32.68,48.3705 C32.5186659,48.300833 32.3445009,48.2256671 32.1575,48.145 C31.9704991,48.0643329 31.7596678,47.989167 31.525,47.9195 C31.2903322,47.849833 31.0226682,47.815 30.722,47.815 C30.2893312,47.815 29.9575012,47.8974992 29.7265,48.0625 C29.4954988,48.2275008 29.38,48.4566652 29.38,48.75 C29.38,48.9626677 29.4551659,49.138666 29.6055,49.278 C29.7558341,49.417334 29.9556654,49.5401661 30.205,49.6465 C30.4543346,49.7528339 30.7366651,49.8536662 31.052,49.949 C31.3673349,50.0443338 31.6899983,50.1506661 32.02,50.268 C32.3500016,50.3853339 32.6726651,50.5228325 32.988,50.6805 C33.3033349,50.8381675 33.5856654,51.0324988 33.835,51.2635 C34.0843346,51.4945012 34.2841659,51.7749984 34.4345,52.105 C34.5848341,52.4350017 34.66,52.8309977 34.66,53.293 C34.66,53.8576695 34.5573344,54.378331 34.352,54.855 C34.1466656,55.3316691 33.840502,55.7423316 33.4335,56.087 C33.026498,56.4316684 32.5241697,56.6993324 31.9265,56.89 C31.3288303,57.0806676 30.6413372,57.176 29.864,57.176 C29.4753314,57.176 29.0866686,57.1393337 28.698,57.066 C28.3093314,56.9926663 27.9335018,56.8936673 27.5705,56.769 C27.2074982,56.6443327 26.8720015,56.4958342 26.564,56.3235 C26.2559985,56.1511658 25.9920011,55.966001 25.772,55.768 L26.564,54.514 C26.6593338,54.3673326 26.7729993,54.2518338 26.905,54.1675 C27.0370007,54.0831662 27.2093323,54.041 27.422,54.041 C27.620001,54.041 27.7978325,54.0849996 27.9555,54.173 C28.1131675,54.2610004 28.2836657,54.3563328 28.467,54.459 C28.6503342,54.5616672 28.8648321,54.6569996 29.1105,54.745 C29.3561679,54.8330004 29.6659981,54.877 30.04,54.877 C30.3040013,54.877 30.5276657,54.8495003 30.711,54.7945 C30.8943342,54.7394997 31.0409994,54.6643338 31.151,54.569 C31.2610005,54.4736662 31.3416664,54.3673339 31.393,54.25 C31.4443336,54.1326661 31.47,54.0116673 31.47,53.887 C31.47,53.6596655 31.3930008,53.4726674 31.239,53.326 C31.0849992,53.1793326 30.8833346,53.0528339 30.634,52.9465 C30.3846654,52.8401661 30.1005016,52.7411671 29.7815,52.6495 C29.4624984,52.5578329 29.1380016,52.4533339 28.808,52.336 C28.4779983,52.2186661 28.1535016,52.0775008 27.8345,51.9125 C27.5154984,51.7474992 27.2313346,51.5385013 26.982,51.2855 C26.7326654,51.0324987 26.5310008,50.7226685 26.377,50.356 C26.2229992,49.9893315 26.146,49.5456693 26.146,49.025 C26.146,48.5409976 26.2394991,48.0808355 26.4265,47.6445 C26.6135009,47.2081645 26.8939981,46.8250017 27.268,46.495 C27.6420019,46.1649984 28.1113305,45.9028343 28.676,45.7085 C29.2406695,45.5141657 29.9006629,45.417 30.656,45.417 C31.0666687,45.417 31.4644981,45.4536663 31.8495,45.527 C32.2345019,45.6003337 32.595665,45.7029993 32.933,45.835 C33.270335,45.9670007 33.5783319,46.1228324 33.857,46.3025 C34.1356681,46.4821676 34.3813323,46.6783323 34.594,46.891 L33.824,48.09 Z M40.05,45.593 L40.05,57 L36.64,57 L36.64,45.593 L40.05,45.593 Z M40.446,42.469 C40.446,42.7403347 40.3910006,42.9951655 40.281,43.2335 C40.1709994,43.4718345 40.0206676,43.6808324 39.83,43.8605 C39.6393324,44.0401676 39.4175013,44.1831661 39.1645,44.2895 C38.9114987,44.3958339 38.6420014,44.449 38.356,44.449 C38.0773319,44.449 37.8170012,44.3958339 37.575,44.2895 C37.3329988,44.1831661 37.1185009,44.0401676 36.9315,43.8605 C36.7444991,43.6808324 36.5978339,43.4718345 36.4915,43.2335 C36.3851661,42.9951655 36.332,42.7403347 36.332,42.469 C36.332,42.1903319 36.3851661,41.9300012 36.4915,41.688 C36.5978339,41.4459988 36.7444991,41.2333343 36.9315,41.05 C37.1185009,40.8666658 37.3329988,40.7236672 37.575,40.621 C37.8170012,40.5183328 38.0773319,40.467 38.356,40.467 C38.6420014,40.467 38.9114987,40.5183328 39.1645,40.621 C39.4175013,40.7236672 39.6393324,40.8666658 39.83,41.05 C40.0206676,41.2333343 40.1709994,41.4459988 40.281,41.688 C40.3910006,41.9300012 40.446,42.1903319 40.446,42.469 Z M47.882,45.417 C48.7473377,45.417 49.5356631,45.5526653 50.247,45.824 C50.9583369,46.0953347 51.5688308,46.4839975 52.0785,46.99 C52.5881692,47.4960025 52.9841653,48.1101631 53.2665,48.8325 C53.5488347,49.5548369 53.69,50.3669955 53.69,51.269 C53.69,52.1783379 53.5488347,52.9978297 53.2665,53.7275 C52.9841653,54.4571703 52.5881692,55.0768308 52.0785,55.5865 C51.5688308,56.0961692 50.9583369,56.4884986 50.247,56.7635 C49.5356631,57.0385014 48.7473377,57.176 47.882,57.176 C47.009329,57.176 46.2155036,57.0385014 45.5005,56.7635 C44.7854964,56.4884986 44.1695026,56.0961692 43.6525,55.5865 C43.1354974,55.0768308 42.7358347,54.4571703 42.4535,53.7275 C42.1711653,52.9978297 42.03,52.1783379 42.03,51.269 C42.03,50.3669955 42.1711653,49.5548369 42.4535,48.8325 C42.7358347,48.1101631 43.1354974,47.4960025 43.6525,46.99 C44.1695026,46.4839975 44.7854964,46.0953347 45.5005,45.824 C46.2155036,45.5526653 47.009329,45.417 47.882,45.417 Z M47.882,54.646 C48.6666706,54.646 49.2441648,54.3691694 49.6145,53.8155 C49.9848352,53.2618306 50.17,52.420339 50.17,51.291 C50.17,50.161661 49.9848352,49.3220028 49.6145,48.772 C49.2441648,48.2219973 48.6666706,47.947 47.882,47.947 C47.0753293,47.947 46.4850019,48.2219973 46.111,48.772 C45.7369981,49.3220028 45.55,50.161661 45.55,51.291 C45.55,52.420339 45.7369981,53.2618306 46.111,53.8155 C46.4850019,54.3691694 47.0753293,54.646 47.882,54.646 Z M55.56,57 L55.56,45.593 L57.672,45.593 C57.8846677,45.593 58.0624993,45.6406662 58.2055,45.736 C58.3485007,45.8313338 58.449333,45.9743324 58.508,46.165 L58.706,46.825 C58.9260011,46.6196656 59.1533322,46.4290009 59.388,46.253 C59.6226678,46.0769991 59.873832,45.9285006 60.1415,45.8075 C60.409168,45.6864994 60.6988318,45.591167 61.0105,45.5215 C61.3221682,45.451833 61.6613315,45.417 62.028,45.417 C62.6513365,45.417 63.2031643,45.5251656 63.6835,45.7415 C64.1638357,45.9578344 64.5689984,46.2584981 64.899,46.6435 C65.2290016,47.0285019 65.4783325,47.4868307 65.647,48.0185 C65.8156675,48.5501693 65.9,49.1276636 65.9,49.751 L65.9,57 L62.49,57 L62.49,49.751 C62.49,49.1936639 62.3616679,48.7591682 62.105,48.4475 C61.848332,48.1358318 61.4706692,47.98 60.972,47.98 C60.5979981,47.98 60.2460016,48.0606659 59.916,48.222 C59.5859983,48.3833341 59.2706682,48.5996653 58.97,48.871 L58.97,57 L55.56,57 Z" id="Extension" fill="#717271" transform="translate(17.093000, 48.821500) rotate(-90.000000) translate(-17.093000, -48.821500) "></path>
            <g id="LenovoLogo-POS-Red" transform="translate(17.027523, 155.972477) rotate(-90.000000) translate(-17.027523, -155.972477) translate(-32.972477, 138.972477)">
                <polygon id="Fill-1" fill="#CD2B2B" points="0 33.3333333 100 33.3333333 100 0 0 0"></polygon>
                <path d="M43.349421,11.3095238 C41.8861919,11.3095238 40.2216976,11.9967556 39.2045961,13.3728505 L39.2054012,13.3704035 L39.2045961,13.3713446 L39.2054012,11.5252367 L35.7142857,11.5252367 L35.7142857,24.4047619 L39.2045961,24.4047619 L39.2045961,17.0764857 C39.2045961,15.7573621 40.213709,14.3554796 42.082441,14.3554796 C43.5269679,14.3554796 45.0212847,15.3730569 45.0212847,17.0764857 L45.0212847,24.4047619 L48.5119048,24.4047619 L48.5119048,16.420814 C48.5119048,13.459123 46.4204805,11.3095238 43.349421,11.3095238" id="Fill-3" fill="#FFFFFE"></path>
                <polyline id="Fill-4" fill="#FFFFFE" points="73.6916012 11.6071429 70.5357143 20.3278651 67.3798273 11.6071429 63.3928571 11.6071429 68.6233558 24.4047619 72.4480728 24.4047619 77.6785714 11.6071429 73.6916012 11.6071429"></polyline>
                <path d="M25.2774478,15.4307379 C25.8770058,14.6174259 26.8323133,14.1401171 27.985766,14.1401171 C29.2547826,14.1401171 30.2173987,14.8722052 30.7147607,15.9523507 L24.5635752,18.530626 C24.3952267,17.2078817 24.730362,16.1728606 25.2774478,15.4307379 Z M32.0419341,20.4991856 C30.5598426,21.6069737 29.7131653,21.8717245 28.3618172,21.8717245 C27.1456476,21.8717245 26.1937758,21.4902183 25.5223183,20.8211781 L34.5238095,17.0482739 C34.3275383,15.6421599 33.7995674,14.386692 32.9865597,13.4317588 C31.8039974,12.0435683 30.0532355,11.3095238 27.9222995,11.3095238 C24.0505339,11.3095238 21.1309524,14.1953393 21.1309524,18.0064888 C21.1309524,21.9162178 24.0570305,24.702381 28.3098446,24.702381 C30.692585,24.702381 33.1288595,23.5613333 34.2682571,22.2285544 L32.0419341,20.4991856 Z" id="Fill-5" fill="#FFFFFE"></path>
                <polyline id="Fill-6" fill="#FFFFFE" points="20.8333333 21.1699851 12.8056637 21.1699851 12.8056637 7.73809524 9.22619048 7.73809524 9.22619048 24.4047619 20.8333333 24.4047619 20.8333333 21.1699851"></polyline>
                <path d="M84.2029211,14.3583587 C82.2495322,14.3583587 80.8316498,15.8639032 80.8316498,18.0063311 C80.8316498,20.0513645 82.3339226,21.6537354 84.2500804,21.6537354 C86.2034693,21.6537354 87.6213516,20.1065947 87.6213516,18.0063311 C87.6213516,15.9607297 86.1196994,14.3583587 84.2029211,14.3583587 M84.2029211,24.702381 C80.3774311,24.702381 77.3809524,21.8037723 77.3809524,18.0063311 C77.3809524,14.2512436 80.3985287,11.3095238 84.2500804,11.3095238 C88.0749499,11.3095238 91.0714286,14.2081956 91.0714286,18.0063311 C91.0714286,21.7604087 88.0544728,24.702381 84.2029211,24.702381" id="Fill-7" fill="#FFFFFE"></path>
                <path d="M57.1193088,14.3583587 C55.1658844,14.3583587 53.7483316,15.8639032 53.7483316,18.0063311 C53.7483316,20.0513645 55.2502737,21.6537354 57.1665916,21.6537354 C59.120016,21.6537354 60.5379411,20.1065947 60.5379411,18.0063311 C60.5379411,15.9607297 59.0359991,14.3583587 57.1193088,14.3583587 M57.1193088,24.702381 C53.2942432,24.702381 50.297619,21.8037723 50.297619,18.0063311 C50.297619,14.2512436 53.3149061,11.3095238 57.1665916,11.3095238 C60.991347,11.3095238 63.9880952,14.2081956 63.9880952,18.0063311 C63.9880952,21.7604087 60.9708082,24.702381 57.1193088,24.702381" id="Fill-8" fill="#FFFFFE"></path>
            </g>
        </g>
    </g>
</svg>